<?xml version="1.0" standalone="no"?><!DOCTYPE svg PUBLIC "-//W3C//DTD SVG 1.1//EN" "http://www.w3.org/Graphics/SVG/1.1/DTD/svg11.dtd"><svg t="1552980237025" class="icon" style="" viewBox="0 0 1024 1024" version="1.1" xmlns="http://www.w3.org/2000/svg" p-id="1306" xmlns:xlink="http://www.w3.org/1999/xlink" width="200" height="200"><defs><style type="text/css"></style></defs><path d="M512 64C264.8 64 64 264.8 64 512s200.8 448 448 448 448-200.8 448-448S759.2 64 512 64z m-16 831.2c-199.2-8-359.2-168.8-367.2-367.2h128C264.8 656.8 368 759.2 496 767.2v128z m0-192c-92.8-8-167.2-82.4-175.2-175.2h129.6c5.6 22.4 23.2 40 45.6 45.6v129.6z m0-252.8c-22.4 5.6-39.2 23.2-45.6 45.6H320.8c8-92.8 82.4-167.2 175.2-175.2v129.6z m0-193.6C367.2 264.8 264.8 368 256.8 496h-128c8-199.2 168.8-359.2 367.2-367.2v128z m32 64c17.6 1.6 34.4 5.6 49.6 11.2 4.8-22.4 17.6-41.6 35.2-55.2-26.4-11.2-55.2-18.4-84.8-20.8V128c92 4 176 40 240 97.6L722.4 272c8.8 5.6 17.6 12.8 24 21.6l44.8-44.8c61.6 64.8 100.8 152 104.8 247.2H768c-1.6-29.6-8.8-58.4-20-84.8-13.6 17.6-32.8 30.4-55.2 35.2 5.6 16 9.6 32 11.2 49.6H574.4c-2.4-8-5.6-14.4-10.4-20.8l47.2-47.2c-8-6.4-15.2-15.2-21.6-24l-50.4 50.4c-4-1.6-7.2-3.2-12-4V320.8z m0 253.6c22.4-5.6 40.8-23.2 46.4-46.4h128.8c-8 92.8-82.4 167.2-175.2 175.2V574.4z m0 320.8v-128C656.8 759.2 759.2 656 767.2 528h128c-8 199.2-168 359.2-367.2 367.2z m143.2-478.4c-35.2 0-64-28.8-64-64s28.8-64 64-64 64 28.8 64 64-28.8 64-64 64z" p-id="1307" fill="#ffffff"></path></svg>